<?xml version="1.0" standalone="no"?>
<!DOCTYPE svg PUBLIC "-//W3C//DTD SVG 1.1//EN" "http://www.w3.org/Graphics/SVG/1.1/DTD/svg11.dtd">
<svg xmlns="http://www.w3.org/2000/svg" width="1180" height="253" viewBox="0 0 1180 253" fill="none">
<path d="M1069.67 252.893L1096.12 179.687L1096.63 201.188L1036.87 53.2402H1072.72L1112.91 157.93H1104.77L1144.7 53.2402H1179.28L1101.72 252.893H1069.67Z" fill="url(#paint0_linear_264_14321)"/>
<path d="M940.617 199.653V53.5125C940.617 49.8001 940.709 45.5897 940.894 40.8813C941.079 36.173 941.817 31.4193 943.11 26.6204C944.495 21.8215 946.988 17.4753 950.588 13.5818C955.205 8.51127 960.19 5.07054 965.545 3.25963C970.992 1.35817 976.255 0.362172 981.332 0.271633C986.41 0.0905438 990.75 0 994.35 0H1012.91V29.8801H995.735C989.826 29.8801 985.441 31.3741 982.579 34.3621C979.717 37.2595 978.286 40.7455 978.286 44.8201V199.653H940.617ZM917.074 81.491V52.9692H1012.91V81.491H917.074Z" fill="url(#paint1_linear_264_14321)"/>
<path d="M817.493 203.646C803.373 203.646 791.006 200.183 780.392 193.256C769.778 186.329 761.487 176.909 755.516 164.995C749.641 153.081 746.703 139.643 746.703 124.681C746.703 109.443 749.688 95.9123 755.658 84.0906C761.723 72.1766 770.205 62.8025 781.103 55.9681C792.001 49.1337 804.794 45.7165 819.483 45.7165C834.077 45.7165 846.349 49.1799 856.299 56.1066C866.249 63.0333 873.783 72.4537 878.901 84.3677C884.018 96.2817 886.577 109.72 886.577 124.681C886.577 139.643 883.971 153.081 878.758 164.995C873.641 176.909 865.965 186.329 855.731 193.256C845.496 200.183 832.75 203.646 817.493 203.646ZM823.747 170.121C832.371 170.121 839.241 168.227 844.359 164.441C849.571 160.654 853.314 155.344 855.588 148.509C857.863 141.675 859 133.732 859 124.681C859 115.63 857.863 107.688 855.588 100.853C853.314 94.019 849.666 88.7085 844.643 84.9219C839.715 81.1352 833.224 79.2419 825.169 79.2419C816.545 79.2419 809.438 81.3199 803.847 85.476C798.35 89.5397 794.275 95.0349 791.622 101.962C788.968 108.796 787.642 116.369 787.642 124.681C787.642 133.086 788.921 140.751 791.48 147.678C794.038 154.513 797.971 159.962 803.278 164.025C808.585 168.089 815.408 170.121 823.747 170.121ZM859 199.49V96.9744H854.167V0H893.115V199.49H859Z" fill="#0A1212"/>
<path d="M685.477 199.653V0H721.414V199.653H685.477Z" fill="#0A1212"/>
<path d="M580.191 199.653C565.648 199.653 552.89 196.415 541.915 189.937C530.941 183.459 522.376 174.541 516.22 163.183C510.153 151.737 507.119 138.604 507.119 123.785C507.119 108.789 510.242 95.6119 516.487 84.2539C522.733 72.8071 531.343 63.8892 542.317 57.5003C553.291 51.1114 565.916 47.917 580.191 47.917C594.735 47.917 607.493 51.1558 618.467 57.6334C629.531 64.1111 638.141 73.0733 644.297 84.5201C650.453 95.8781 653.531 108.966 653.531 123.785C653.531 138.693 650.409 151.87 644.163 163.316C638.007 174.675 629.397 183.592 618.334 190.07C607.359 196.459 594.645 199.653 580.191 199.653ZM580.191 165.845C591.879 165.845 600.579 161.941 606.289 154.132C612.088 146.235 614.988 136.119 614.988 123.785C614.988 111.007 612.043 100.803 606.155 93.1717C600.355 85.5405 591.701 81.7249 580.191 81.7249C572.251 81.7249 565.738 83.4996 560.652 87.049C555.566 90.5984 551.774 95.5232 549.276 101.823C546.867 108.123 545.663 115.444 545.663 123.785C545.663 136.652 548.562 146.901 554.362 154.532C560.25 162.074 568.86 165.845 580.191 165.845Z" fill="#0A1212"/>
<path d="M320.777 199.653V0H357.347V82.0796H443.93V0H480.5V199.653H443.93V117.296H357.347V199.653H320.777Z" fill="#0A1212"/>
<path d="M54.8516 199.653H0V0H54.8516V199.653ZM178.479 199.653H91.5635V117.362H178.479V199.653ZM266.205 168.249L215.189 182.43V117.228L266.205 168.249ZM178.479 82.0127H91.5635V0H178.479V82.0127Z" fill="url(#paint2_linear_264_14321)"/>
<defs>
<linearGradient id="paint0_linear_264_14321" x1="1108.07" y1="53.2402" x2="1108.07" y2="252.893" gradientUnits="userSpaceOnUse">
<stop stop-color="#008675"/>
<stop offset="1" stop-color="#0A1212"/>
</linearGradient>
<linearGradient id="paint1_linear_264_14321" x1="964.991" y1="0" x2="964.991" y2="199.653" gradientUnits="userSpaceOnUse">
<stop stop-color="#008675"/>
<stop offset="1" stop-color="#0A1212"/>
</linearGradient>
<linearGradient id="paint2_linear_264_14321" x1="133.104" y1="1.66667e-05" x2="133.104" y2="199.653" gradientUnits="userSpaceOnUse">
<stop stop-color="#008675"/>
<stop offset="1" stop-color="#0A1212"/>
</linearGradient>
</defs>
</svg>
